<svg width="135" height="40" viewBox="0 0 135 40" fill="none" xmlns="http://www.w3.org/2000/svg">
<path d="M67.512 16.024C69.144 16.024 70.456 16.528 71.448 17.536C72.456 18.528 72.96 19.92 72.96 21.712V29.512H69.6V22.168C69.6 21.128 69.336 20.336 68.808 19.792C68.28 19.232 67.56 18.952 66.648 18.952C65.736 18.952 65.008 19.232 64.464 19.792C63.936 20.336 63.672 21.128 63.672 22.168V29.512H60.312V22.168C60.312 21.128 60.048 20.336 59.52 19.792C58.992 19.232 58.272 18.952 57.36 18.952C56.432 18.952 55.696 19.232 55.152 19.792C54.624 20.336 54.36 21.128 54.36 22.168V29.512H51V16.216H54.36V17.824C54.792 17.264 55.344 16.824 56.016 16.504C56.704 16.184 57.456 16.024 58.272 16.024C59.312 16.024 60.24 16.248 61.056 16.696C61.872 17.128 62.504 17.752 62.952 18.568C63.384 17.8 64.008 17.184 64.824 16.72C65.656 16.256 66.552 16.024 67.512 16.024Z" fill="white"/>
<path d="M82.0524 29.728C80.7724 29.728 79.6204 29.448 78.5964 28.888C77.5724 28.312 76.7644 27.504 76.1724 26.464C75.5964 25.424 75.3084 24.224 75.3084 22.864C75.3084 21.504 75.6044 20.304 76.1964 19.264C76.8044 18.224 77.6284 17.424 78.6684 16.864C79.7084 16.288 80.8684 16 82.1484 16C83.4284 16 84.5884 16.288 85.6284 16.864C86.6684 17.424 87.4844 18.224 88.0764 19.264C88.6844 20.304 88.9884 21.504 88.9884 22.864C88.9884 24.224 88.6764 25.424 88.0524 26.464C87.4444 27.504 86.6124 28.312 85.5564 28.888C84.5164 29.448 83.3484 29.728 82.0524 29.728ZM82.0524 26.8C82.6604 26.8 83.2284 26.656 83.7564 26.368C84.3004 26.064 84.7324 25.616 85.0524 25.024C85.3724 24.432 85.5324 23.712 85.5324 22.864C85.5324 21.6 85.1964 20.632 84.5244 19.96C83.8684 19.272 83.0604 18.928 82.1004 18.928C81.1404 18.928 80.3324 19.272 79.6764 19.96C79.0364 20.632 78.7164 21.6 78.7164 22.864C78.7164 24.128 79.0284 25.104 79.6524 25.792C80.2924 26.464 81.0924 26.8 82.0524 26.8Z" fill="white"/>
<path d="M98.8211 16.024C100.405 16.024 101.685 16.528 102.661 17.536C103.637 18.528 104.125 19.92 104.125 21.712V29.512H100.765V22.168C100.765 21.112 100.501 20.304 99.9731 19.744C99.4451 19.168 98.7251 18.88 97.8131 18.88C96.8851 18.88 96.1491 19.168 95.6051 19.744C95.0771 20.304 94.8131 21.112 94.8131 22.168V29.512H91.4531V16.216H94.8131V17.872C95.2611 17.296 95.8291 16.848 96.5171 16.528C97.2211 16.192 97.9891 16.024 98.8211 16.024Z" fill="white"/>
<path d="M119.68 22.576C119.68 23.056 119.648 23.488 119.584 23.872H109.864C109.944 24.832 110.28 25.584 110.872 26.128C111.464 26.672 112.192 26.944 113.056 26.944C114.304 26.944 115.192 26.408 115.72 25.336H119.344C118.96 26.616 118.224 27.672 117.136 28.504C116.048 29.32 114.712 29.728 113.128 29.728C111.848 29.728 110.696 29.448 109.672 28.888C108.664 28.312 107.872 27.504 107.296 26.464C106.736 25.424 106.456 24.224 106.456 22.864C106.456 21.488 106.736 20.28 107.296 19.24C107.856 18.2 108.64 17.4 109.648 16.84C110.656 16.28 111.816 16 113.128 16C114.392 16 115.52 16.272 116.512 16.816C117.52 17.36 118.296 18.136 118.84 19.144C119.4 20.136 119.68 21.28 119.68 22.576ZM116.2 21.616C116.184 20.752 115.872 20.064 115.264 19.552C114.656 19.024 113.912 18.76 113.032 18.76C112.2 18.76 111.496 19.016 110.92 19.528C110.36 20.024 110.016 20.72 109.888 21.616H116.2Z" fill="white"/>
<path d="M134.853 16.216L126.621 35.8H123.045L125.925 29.176L120.597 16.216H124.365L127.797 25.504L131.277 16.216H134.853Z" fill="white"/>
<path d="M34.1422 5.85781C30.3647 2.08031 25.3422 0 20 0C14.6578 0 9.63531 2.08031 5.85781 5.85781C2.08031 9.63531 0 14.6578 0 20C0 25.3422 2.08039 30.3646 5.85781 34.1422C9.63523 37.9198 14.6578 40 20 40C25.3422 40 30.3647 37.9197 34.1422 34.1422C37.9197 30.3647 40 25.3422 40 20C40 14.6578 37.9196 9.63539 34.1422 5.85781Z" fill="#33CC95"/>
<g clip-path="url(#clip0)">
<path d="M20.5714 8V33.1429" stroke="white" stroke-width="2" stroke-linecap="round" stroke-linejoin="round"/>
<path d="M26.2858 12.5714H17.7144C16.6535 12.5714 15.6361 12.9929 14.8859 13.743C14.1358 14.4931 13.7144 15.5106 13.7144 16.5714C13.7144 17.6323 14.1358 18.6497 14.8859 19.3999C15.6361 20.15 16.6535 20.5714 17.7144 20.5714H23.4286C24.4895 20.5714 25.5069 20.9929 26.2571 21.743C27.0072 22.4931 27.4286 23.5106 27.4286 24.5714C27.4286 25.6323 27.0072 26.6497 26.2571 27.3999C25.5069 28.15 24.4895 28.5714 23.4286 28.5714H13.7144" stroke="white" stroke-width="2" stroke-linecap="round" stroke-linejoin="round"/>
</g>
<defs>
<clipPath id="clip0">
<rect width="27.4286" height="27.4286" fill="white" transform="translate(6.85718 6.85714)"/>
</clipPath>
</defs>
</svg>
